<svg class="rich-terminal" viewBox="0 0 1287 782.0" xmlns="http://www.w3.org/2000/svg">
    <!-- Generated with Rich https://www.textualize.io -->
    <style>

    @font-face {
        font-family: "Fira Code";
        src: local("FiraCode-Regular"),
                url("https://cdnjs.cloudflare.com/ajax/libs/firacode/6.2.0/woff2/FiraCode-Regular.woff2") format("woff2"),
                url("https://cdnjs.cloudflare.com/ajax/libs/firacode/6.2.0/woff/FiraCode-Regular.woff") format("woff");
        font-style: normal;
        font-weight: 400;
    }
    @font-face {
        font-family: "Fira Code";
        src: local("FiraCode-Bold"),
                url("https://cdnjs.cloudflare.com/ajax/libs/firacode/6.2.0/woff2/FiraCode-Bold.woff2") format("woff2"),
                url("https://cdnjs.cloudflare.com/ajax/libs/firacode/6.2.0/woff/FiraCode-Bold.woff") format("woff");
        font-style: bold;
        font-weight: 700;
    }

    .terminal-1618869302-matrix {
        font-family: Fira Code, monospace;
        font-size: 20px;
        line-height: 24.4px;
        font-variant-east-asian: full-width;
    }

    .terminal-1618869302-title {
        font-size: 18px;
        font-weight: bold;
        font-family: arial;
    }

    .terminal-1618869302-r1 { fill: #c5c8c6 }
.terminal-1618869302-r2 { fill: #c5c8c6;font-weight: bold }
.terminal-1618869302-r3 { fill: #66d9ef }
.terminal-1618869302-r4 { fill: #f8f8f2 }
.terminal-1618869302-r5 { fill: #ff4689 }
.terminal-1618869302-r6 { fill: #a6e22e }
.terminal-1618869302-r7 { fill: #e6db74 }
    </style>

    <defs>
    <clipPath id="terminal-1618869302-clip-terminal">
      <rect x="0" y="0" width="1267.8" height="731.0" />
    </clipPath>
    <clipPath id="terminal-1618869302-line-0">
    <rect x="0" y="1.5" width="1268.8" height="24.65"/>
            </clipPath>
<clipPath id="terminal-1618869302-line-1">
    <rect x="0" y="25.9" width="1268.8" height="24.65"/>
            </clipPath>
<clipPath id="terminal-1618869302-line-2">
    <rect x="0" y="50.3" width="1268.8" height="24.65"/>
            </clipPath>
<clipPath id="terminal-1618869302-line-3">
    <rect x="0" y="74.7" width="1268.8" height="24.65"/>
            </clipPath>
<clipPath id="terminal-1618869302-line-4">
    <rect x="0" y="99.1" width="1268.8" height="24.65"/>
            </clipPath>
<clipPath id="terminal-1618869302-line-5">
    <rect x="0" y="123.5" width="1268.8" height="24.65"/>
            </clipPath>
<clipPath id="terminal-1618869302-line-6">
    <rect x="0" y="147.9" width="1268.8" height="24.65"/>
            </clipPath>
<clipPath id="terminal-1618869302-line-7">
    <rect x="0" y="172.3" width="1268.8" height="24.65"/>
            </clipPath>
<clipPath id="terminal-1618869302-line-8">
    <rect x="0" y="196.7" width="1268.8" height="24.65"/>
            </clipPath>
<clipPath id="terminal-1618869302-line-9">
    <rect x="0" y="221.1" width="1268.8" height="24.65"/>
            </clipPath>
<clipPath id="terminal-1618869302-line-10">
    <rect x="0" y="245.5" width="1268.8" height="24.65"/>
            </clipPath>
<clipPath id="terminal-1618869302-line-11">
    <rect x="0" y="269.9" width="1268.8" height="24.65"/>
            </clipPath>
<clipPath id="terminal-1618869302-line-12">
    <rect x="0" y="294.3" width="1268.8" height="24.65"/>
            </clipPath>
<clipPath id="terminal-1618869302-line-13">
    <rect x="0" y="318.7" width="1268.8" height="24.65"/>
            </clipPath>
<clipPath id="terminal-1618869302-line-14">
    <rect x="0" y="343.1" width="1268.8" height="24.65"/>
            </clipPath>
<clipPath id="terminal-1618869302-line-15">
    <rect x="0" y="367.5" width="1268.8" height="24.65"/>
            </clipPath>
<clipPath id="terminal-1618869302-line-16">
    <rect x="0" y="391.9" width="1268.8" height="24.65"/>
            </clipPath>
<clipPath id="terminal-1618869302-line-17">
    <rect x="0" y="416.3" width="1268.8" height="24.65"/>
            </clipPath>
<clipPath id="terminal-1618869302-line-18">
    <rect x="0" y="440.7" width="1268.8" height="24.65"/>
            </clipPath>
<clipPath id="terminal-1618869302-line-19">
    <rect x="0" y="465.1" width="1268.8" height="24.65"/>
            </clipPath>
<clipPath id="terminal-1618869302-line-20">
    <rect x="0" y="489.5" width="1268.8" height="24.65"/>
            </clipPath>
<clipPath id="terminal-1618869302-line-21">
    <rect x="0" y="513.9" width="1268.8" height="24.65"/>
            </clipPath>
<clipPath id="terminal-1618869302-line-22">
    <rect x="0" y="538.3" width="1268.8" height="24.65"/>
            </clipPath>
<clipPath id="terminal-1618869302-line-23">
    <rect x="0" y="562.7" width="1268.8" height="24.65"/>
            </clipPath>
<clipPath id="terminal-1618869302-line-24">
    <rect x="0" y="587.1" width="1268.8" height="24.65"/>
            </clipPath>
<clipPath id="terminal-1618869302-line-25">
    <rect x="0" y="611.5" width="1268.8" height="24.65"/>
            </clipPath>
<clipPath id="terminal-1618869302-line-26">
    <rect x="0" y="635.9" width="1268.8" height="24.65"/>
            </clipPath>
<clipPath id="terminal-1618869302-line-27">
    <rect x="0" y="660.3" width="1268.8" height="24.65"/>
            </clipPath>
<clipPath id="terminal-1618869302-line-28">
    <rect x="0" y="684.7" width="1268.8" height="24.65"/>
            </clipPath>
    </defs>

    <rect fill="#292929" stroke="rgba(255,255,255,0.35)" stroke-width="1" x="1" y="1" width="1285" height="780" rx="8"/><text class="terminal-1618869302-title" fill="#c5c8c6" text-anchor="middle" x="642" y="27">Monsters,&#160;Inc.&#160;—&#160;AA4</text>
            <g transform="translate(26,22)">
            <circle cx="0" cy="0" r="7" fill="#ff5f57"/>
            <circle cx="22" cy="0" r="7" fill="#febc2e"/>
            <circle cx="44" cy="0" r="7" fill="#28c840"/>
            </g>
        
    <g transform="translate(9, 41)" clip-path="url(#terminal-1618869302-clip-terminal)">
    <rect fill="#272822" x="0" y="147.9" width="73.2" height="24.65" shape-rendering="crispEdges"/><rect fill="#272822" x="73.2" y="147.9" width="12.2" height="24.65" shape-rendering="crispEdges"/><rect fill="#272822" x="85.4" y="147.9" width="24.4" height="24.65" shape-rendering="crispEdges"/><rect fill="#272822" x="109.8" y="147.9" width="12.2" height="24.65" shape-rendering="crispEdges"/><rect fill="#272822" x="122" y="147.9" width="36.6" height="24.65" shape-rendering="crispEdges"/><rect fill="#272822" x="158.6" y="147.9" width="500.2" height="24.65" shape-rendering="crispEdges"/><rect fill="#272822" x="658.8" y="147.9" width="610" height="24.65" shape-rendering="crispEdges"/><rect fill="#272822" x="0" y="172.3" width="73.2" height="24.65" shape-rendering="crispEdges"/><rect fill="#272822" x="73.2" y="172.3" width="12.2" height="24.65" shape-rendering="crispEdges"/><rect fill="#272822" x="85.4" y="172.3" width="48.8" height="24.65" shape-rendering="crispEdges"/><rect fill="#272822" x="134.2" y="172.3" width="12.2" height="24.65" shape-rendering="crispEdges"/><rect fill="#272822" x="146.4" y="172.3" width="12.2" height="24.65" shape-rendering="crispEdges"/><rect fill="#272822" x="158.6" y="172.3" width="475.8" height="24.65" shape-rendering="crispEdges"/><rect fill="#272822" x="634.4" y="172.3" width="634.4" height="24.65" shape-rendering="crispEdges"/><rect fill="#272822" x="0" y="196.7" width="1268.8" height="24.65" shape-rendering="crispEdges"/><rect fill="#272822" x="0" y="221.1" width="73.2" height="24.65" shape-rendering="crispEdges"/><rect fill="#272822" x="73.2" y="221.1" width="12.2" height="24.65" shape-rendering="crispEdges"/><rect fill="#272822" x="85.4" y="221.1" width="97.6" height="24.65" shape-rendering="crispEdges"/><rect fill="#272822" x="183" y="221.1" width="12.2" height="24.65" shape-rendering="crispEdges"/><rect fill="#272822" x="195.2" y="221.1" width="97.6" height="24.65" shape-rendering="crispEdges"/><rect fill="#272822" x="292.8" y="221.1" width="976" height="24.65" shape-rendering="crispEdges"/><rect fill="#272822" x="0" y="245.5" width="61" height="24.65" shape-rendering="crispEdges"/><rect fill="#272822" x="61" y="245.5" width="12.2" height="24.65" shape-rendering="crispEdges"/><rect fill="#272822" x="73.2" y="245.5" width="12.2" height="24.65" shape-rendering="crispEdges"/><rect fill="#272822" x="85.4" y="245.5" width="1183.4" height="24.65" shape-rendering="crispEdges"/><rect fill="#272822" x="0" y="269.9" width="48.8" height="24.65" shape-rendering="crispEdges"/><rect fill="#272822" x="48.8" y="269.9" width="97.6" height="24.65" shape-rendering="crispEdges"/><rect fill="#272822" x="146.4" y="269.9" width="12.2" height="24.65" shape-rendering="crispEdges"/><rect fill="#272822" x="158.6" y="269.9" width="12.2" height="24.65" shape-rendering="crispEdges"/><rect fill="#272822" x="170.8" y="269.9" width="12.2" height="24.65" shape-rendering="crispEdges"/><rect fill="#272822" x="183" y="269.9" width="24.4" height="24.65" shape-rendering="crispEdges"/><rect fill="#272822" x="207.4" y="269.9" width="12.2" height="24.65" shape-rendering="crispEdges"/><rect fill="#272822" x="219.6" y="269.9" width="134.2" height="24.65" shape-rendering="crispEdges"/><rect fill="#272822" x="353.8" y="269.9" width="12.2" height="24.65" shape-rendering="crispEdges"/><rect fill="#272822" x="366" y="269.9" width="12.2" height="24.65" shape-rendering="crispEdges"/><rect fill="#272822" x="378.2" y="269.9" width="890.6" height="24.65" shape-rendering="crispEdges"/><rect fill="#272822" x="0" y="294.3" width="48.8" height="24.65" shape-rendering="crispEdges"/><rect fill="#272822" x="48.8" y="294.3" width="12.2" height="24.65" shape-rendering="crispEdges"/><rect fill="#272822" x="61" y="294.3" width="1207.8" height="24.65" shape-rendering="crispEdges"/><rect fill="#272822" x="0" y="318.7" width="97.6" height="24.65" shape-rendering="crispEdges"/><rect fill="#272822" x="97.6" y="318.7" width="73.2" height="24.65" shape-rendering="crispEdges"/><rect fill="#272822" x="170.8" y="318.7" width="12.2" height="24.65" shape-rendering="crispEdges"/><rect fill="#272822" x="183" y="318.7" width="122" height="24.65" shape-rendering="crispEdges"/><rect fill="#272822" x="305" y="318.7" width="12.2" height="24.65" shape-rendering="crispEdges"/><rect fill="#272822" x="317.2" y="318.7" width="12.2" height="24.65" shape-rendering="crispEdges"/><rect fill="#272822" x="329.4" y="318.7" width="12.2" height="24.65" shape-rendering="crispEdges"/><rect fill="#272822" x="341.6" y="318.7" width="97.6" height="24.65" shape-rendering="crispEdges"/><rect fill="#272822" x="439.2" y="318.7" width="12.2" height="24.65" shape-rendering="crispEdges"/><rect fill="#272822" x="451.4" y="318.7" width="24.4" height="24.65" shape-rendering="crispEdges"/><rect fill="#272822" x="475.8" y="318.7" width="12.2" height="24.65" shape-rendering="crispEdges"/><rect fill="#272822" x="488" y="318.7" width="134.2" height="24.65" shape-rendering="crispEdges"/><rect fill="#272822" x="622.2" y="318.7" width="12.2" height="24.65" shape-rendering="crispEdges"/><rect fill="#272822" x="634.4" y="318.7" width="24.4" height="24.65" shape-rendering="crispEdges"/><rect fill="#272822" x="658.8" y="318.7" width="12.2" height="24.65" shape-rendering="crispEdges"/><rect fill="#272822" x="671" y="318.7" width="12.2" height="24.65" shape-rendering="crispEdges"/><rect fill="#272822" x="683.2" y="318.7" width="585.6" height="24.65" shape-rendering="crispEdges"/><rect fill="#272822" x="0" y="343.1" width="97.6" height="24.65" shape-rendering="crispEdges"/><rect fill="#272822" x="97.6" y="343.1" width="48.8" height="24.65" shape-rendering="crispEdges"/><rect fill="#272822" x="146.4" y="343.1" width="12.2" height="24.65" shape-rendering="crispEdges"/><rect fill="#272822" x="158.6" y="343.1" width="12.2" height="24.65" shape-rendering="crispEdges"/><rect fill="#272822" x="170.8" y="343.1" width="231.8" height="24.65" shape-rendering="crispEdges"/><rect fill="#272822" x="402.6" y="343.1" width="12.2" height="24.65" shape-rendering="crispEdges"/><rect fill="#272822" x="414.8" y="343.1" width="12.2" height="24.65" shape-rendering="crispEdges"/><rect fill="#272822" x="427" y="343.1" width="24.4" height="24.65" shape-rendering="crispEdges"/><rect fill="#272822" x="451.4" y="343.1" width="12.2" height="24.65" shape-rendering="crispEdges"/><rect fill="#272822" x="463.6" y="343.1" width="97.6" height="24.65" shape-rendering="crispEdges"/><rect fill="#272822" x="561.2" y="343.1" width="12.2" height="24.65" shape-rendering="crispEdges"/><rect fill="#272822" x="573.4" y="343.1" width="695.4" height="24.65" shape-rendering="crispEdges"/><rect fill="#272822" x="0" y="367.5" width="48.8" height="24.65" shape-rendering="crispEdges"/><rect fill="#272822" x="48.8" y="367.5" width="12.2" height="24.65" shape-rendering="crispEdges"/><rect fill="#272822" x="61" y="367.5" width="12.2" height="24.65" shape-rendering="crispEdges"/><rect fill="#272822" x="73.2" y="367.5" width="61" height="24.65" shape-rendering="crispEdges"/><rect fill="#272822" x="134.2" y="367.5" width="12.2" height="24.65" shape-rendering="crispEdges"/><rect fill="#272822" x="146.4" y="367.5" width="12.2" height="24.65" shape-rendering="crispEdges"/><rect fill="#272822" x="158.6" y="367.5" width="1110.2" height="24.65" shape-rendering="crispEdges"/><rect fill="#272822" x="0" y="391.9" width="97.6" height="24.65" shape-rendering="crispEdges"/><rect fill="#272822" x="97.6" y="391.9" width="73.2" height="24.65" shape-rendering="crispEdges"/><rect fill="#272822" x="170.8" y="391.9" width="12.2" height="24.65" shape-rendering="crispEdges"/><rect fill="#272822" x="183" y="391.9" width="122" height="24.65" shape-rendering="crispEdges"/><rect fill="#272822" x="305" y="391.9" width="12.2" height="24.65" shape-rendering="crispEdges"/><rect fill="#272822" x="317.2" y="391.9" width="12.2" height="24.65" shape-rendering="crispEdges"/><rect fill="#272822" x="329.4" y="391.9" width="12.2" height="24.65" shape-rendering="crispEdges"/><rect fill="#272822" x="341.6" y="391.9" width="97.6" height="24.65" shape-rendering="crispEdges"/><rect fill="#272822" x="439.2" y="391.9" width="12.2" height="24.65" shape-rendering="crispEdges"/><rect fill="#272822" x="451.4" y="391.9" width="24.4" height="24.65" shape-rendering="crispEdges"/><rect fill="#272822" x="475.8" y="391.9" width="12.2" height="24.65" shape-rendering="crispEdges"/><rect fill="#272822" x="488" y="391.9" width="219.6" height="24.65" shape-rendering="crispEdges"/><rect fill="#272822" x="707.6" y="391.9" width="12.2" height="24.65" shape-rendering="crispEdges"/><rect fill="#272822" x="719.8" y="391.9" width="24.4" height="24.65" shape-rendering="crispEdges"/><rect fill="#272822" x="744.2" y="391.9" width="12.2" height="24.65" shape-rendering="crispEdges"/><rect fill="#272822" x="756.4" y="391.9" width="12.2" height="24.65" shape-rendering="crispEdges"/><rect fill="#272822" x="768.6" y="391.9" width="500.2" height="24.65" shape-rendering="crispEdges"/><rect fill="#272822" x="0" y="416.3" width="97.6" height="24.65" shape-rendering="crispEdges"/><rect fill="#272822" x="97.6" y="416.3" width="48.8" height="24.65" shape-rendering="crispEdges"/><rect fill="#272822" x="146.4" y="416.3" width="12.2" height="24.65" shape-rendering="crispEdges"/><rect fill="#272822" x="158.6" y="416.3" width="12.2" height="24.65" shape-rendering="crispEdges"/><rect fill="#272822" x="170.8" y="416.3" width="317.2" height="24.65" shape-rendering="crispEdges"/><rect fill="#272822" x="488" y="416.3" width="12.2" height="24.65" shape-rendering="crispEdges"/><rect fill="#272822" x="500.2" y="416.3" width="12.2" height="24.65" shape-rendering="crispEdges"/><rect fill="#272822" x="512.4" y="416.3" width="24.4" height="24.65" shape-rendering="crispEdges"/><rect fill="#272822" x="536.8" y="416.3" width="12.2" height="24.65" shape-rendering="crispEdges"/><rect fill="#272822" x="549" y="416.3" width="97.6" height="24.65" shape-rendering="crispEdges"/><rect fill="#272822" x="646.6" y="416.3" width="12.2" height="24.65" shape-rendering="crispEdges"/><rect fill="#272822" x="658.8" y="416.3" width="610" height="24.65" shape-rendering="crispEdges"/><rect fill="#272822" x="0" y="440.7" width="48.8" height="24.65" shape-rendering="crispEdges"/><rect fill="#272822" x="48.8" y="440.7" width="12.2" height="24.65" shape-rendering="crispEdges"/><rect fill="#272822" x="61" y="440.7" width="12.2" height="24.65" shape-rendering="crispEdges"/><rect fill="#272822" x="73.2" y="440.7" width="61" height="24.65" shape-rendering="crispEdges"/><rect fill="#272822" x="134.2" y="440.7" width="12.2" height="24.65" shape-rendering="crispEdges"/><rect fill="#272822" x="146.4" y="440.7" width="12.2" height="24.65" shape-rendering="crispEdges"/><rect fill="#272822" x="158.6" y="440.7" width="1110.2" height="24.65" shape-rendering="crispEdges"/><rect fill="#272822" x="0" y="465.1" width="97.6" height="24.65" shape-rendering="crispEdges"/><rect fill="#272822" x="97.6" y="465.1" width="73.2" height="24.65" shape-rendering="crispEdges"/><rect fill="#272822" x="170.8" y="465.1" width="12.2" height="24.65" shape-rendering="crispEdges"/><rect fill="#272822" x="183" y="465.1" width="122" height="24.65" shape-rendering="crispEdges"/><rect fill="#272822" x="305" y="465.1" width="12.2" height="24.65" shape-rendering="crispEdges"/><rect fill="#272822" x="317.2" y="465.1" width="12.2" height="24.65" shape-rendering="crispEdges"/><rect fill="#272822" x="329.4" y="465.1" width="12.2" height="24.65" shape-rendering="crispEdges"/><rect fill="#272822" x="341.6" y="465.1" width="97.6" height="24.65" shape-rendering="crispEdges"/><rect fill="#272822" x="439.2" y="465.1" width="12.2" height="24.65" shape-rendering="crispEdges"/><rect fill="#272822" x="451.4" y="465.1" width="24.4" height="24.65" shape-rendering="crispEdges"/><rect fill="#272822" x="475.8" y="465.1" width="12.2" height="24.65" shape-rendering="crispEdges"/><rect fill="#272822" x="488" y="465.1" width="183" height="24.65" shape-rendering="crispEdges"/><rect fill="#272822" x="671" y="465.1" width="12.2" height="24.65" shape-rendering="crispEdges"/><rect fill="#272822" x="683.2" y="465.1" width="24.4" height="24.65" shape-rendering="crispEdges"/><rect fill="#272822" x="707.6" y="465.1" width="12.2" height="24.65" shape-rendering="crispEdges"/><rect fill="#272822" x="719.8" y="465.1" width="12.2" height="24.65" shape-rendering="crispEdges"/><rect fill="#272822" x="732" y="465.1" width="536.8" height="24.65" shape-rendering="crispEdges"/><rect fill="#272822" x="0" y="489.5" width="97.6" height="24.65" shape-rendering="crispEdges"/><rect fill="#272822" x="97.6" y="489.5" width="48.8" height="24.65" shape-rendering="crispEdges"/><rect fill="#272822" x="146.4" y="489.5" width="12.2" height="24.65" shape-rendering="crispEdges"/><rect fill="#272822" x="158.6" y="489.5" width="12.2" height="24.65" shape-rendering="crispEdges"/><rect fill="#272822" x="170.8" y="489.5" width="280.6" height="24.65" shape-rendering="crispEdges"/><rect fill="#272822" x="451.4" y="489.5" width="12.2" height="24.65" shape-rendering="crispEdges"/><rect fill="#272822" x="463.6" y="489.5" width="12.2" height="24.65" shape-rendering="crispEdges"/><rect fill="#272822" x="475.8" y="489.5" width="24.4" height="24.65" shape-rendering="crispEdges"/><rect fill="#272822" x="500.2" y="489.5" width="12.2" height="24.65" shape-rendering="crispEdges"/><rect fill="#272822" x="512.4" y="489.5" width="97.6" height="24.65" shape-rendering="crispEdges"/><rect fill="#272822" x="610" y="489.5" width="12.2" height="24.65" shape-rendering="crispEdges"/><rect fill="#272822" x="622.2" y="489.5" width="646.6" height="24.65" shape-rendering="crispEdges"/><rect fill="#272822" x="0" y="513.9" width="48.8" height="24.65" shape-rendering="crispEdges"/><rect fill="#272822" x="48.8" y="513.9" width="12.2" height="24.65" shape-rendering="crispEdges"/><rect fill="#272822" x="61" y="513.9" width="1207.8" height="24.65" shape-rendering="crispEdges"/><rect fill="#272822" x="0" y="538.3" width="12.2" height="24.65" shape-rendering="crispEdges"/><rect fill="#272822" x="12.2" y="538.3" width="1256.6" height="24.65" shape-rendering="crispEdges"/><rect fill="#272822" x="0" y="562.7" width="97.6" height="24.65" shape-rendering="crispEdges"/><rect fill="#272822" x="97.6" y="562.7" width="12.2" height="24.65" shape-rendering="crispEdges"/><rect fill="#272822" x="109.8" y="562.7" width="97.6" height="24.65" shape-rendering="crispEdges"/><rect fill="#272822" x="207.4" y="562.7" width="1061.4" height="24.65" shape-rendering="crispEdges"/>
    <g class="terminal-1618869302-matrix">
    <text class="terminal-1618869302-r1" x="0" y="20" textLength="24.4" clip-path="url(#terminal-1618869302-line-0)">╭─</text><text class="terminal-1618869302-r1" x="24.4" y="20" textLength="524.6" clip-path="url(#terminal-1618869302-line-0)">──────────────────────────────────────────&#160;</text><text class="terminal-1618869302-r2" x="549" y="20" textLength="36.6" clip-path="url(#terminal-1618869302-line-0)">AA4</text><text class="terminal-1618869302-r1" x="585.6" y="20" textLength="658.8" clip-path="url(#terminal-1618869302-line-0)">&#160;—&#160;question&#160;──────────────────────────────────────────</text><text class="terminal-1618869302-r1" x="1244.4" y="20" textLength="24.4" clip-path="url(#terminal-1618869302-line-0)">─╮</text><text class="terminal-1618869302-r1" x="1268.8" y="20" textLength="12.2" clip-path="url(#terminal-1618869302-line-0)">
</text><text class="terminal-1618869302-r1" x="0" y="44.4" textLength="12.2" clip-path="url(#terminal-1618869302-line-1)">│</text><text class="terminal-1618869302-r1" x="24.4" y="44.4" textLength="646.6" clip-path="url(#terminal-1618869302-line-1)">AA4:&#160;Escalation&#160;coverage&#160;gaps&#160;(governance&#160;self-check)</text><text class="terminal-1618869302-r1" x="1256.6" y="44.4" textLength="12.2" clip-path="url(#terminal-1618869302-line-1)">│</text><text class="terminal-1618869302-r1" x="1268.8" y="44.4" textLength="12.2" clip-path="url(#terminal-1618869302-line-1)">
</text><text class="terminal-1618869302-r1" x="0" y="68.8" textLength="12.2" clip-path="url(#terminal-1618869302-line-2)">│</text><text class="terminal-1618869302-r1" x="24.4" y="68.8" textLength="890.6" clip-path="url(#terminal-1618869302-line-2)">Question:&#160;Does&#160;every&#160;HITL&#160;trigger&#160;have&#160;a&#160;target,&#160;a&#160;deadline&#160;AND&#160;a&#160;binding</text><text class="terminal-1618869302-r1" x="1256.6" y="68.8" textLength="12.2" clip-path="url(#terminal-1618869302-line-2)">│</text><text class="terminal-1618869302-r1" x="1268.8" y="68.8" textLength="12.2" clip-path="url(#terminal-1618869302-line-2)">
</text><text class="terminal-1618869302-r1" x="0" y="93.2" textLength="12.2" clip-path="url(#terminal-1618869302-line-3)">│</text><text class="terminal-1618869302-r1" x="24.4" y="93.2" textLength="902.8" clip-path="url(#terminal-1618869302-line-3)">to&#160;a&#160;process&#160;step?&#160;Any&#160;row&#160;=&#160;an&#160;incomplete&#160;trigger&#160;an&#160;agent&#160;cannot&#160;action.</text><text class="terminal-1618869302-r1" x="1256.6" y="93.2" textLength="12.2" clip-path="url(#terminal-1618869302-line-3)">│</text><text class="terminal-1618869302-r1" x="1268.8" y="93.2" textLength="12.2" clip-path="url(#terminal-1618869302-line-3)">
</text><text class="terminal-1618869302-r1" x="0" y="117.6" textLength="12.2" clip-path="url(#terminal-1618869302-line-4)">│</text><text class="terminal-1618869302-r1" x="24.4" y="117.6" textLength="683.2" clip-path="url(#terminal-1618869302-line-4)">Returns:&#160;trigger,&#160;the&#160;missing&#160;element.&#160;Expected:&#160;0&#160;rows.</text><text class="terminal-1618869302-r1" x="1256.6" y="117.6" textLength="12.2" clip-path="url(#terminal-1618869302-line-4)">│</text><text class="terminal-1618869302-r1" x="1268.8" y="117.6" textLength="12.2" clip-path="url(#terminal-1618869302-line-4)">
</text><text class="terminal-1618869302-r1" x="0" y="142" textLength="1268.8" clip-path="url(#terminal-1618869302-line-5)">╰──────────────────────────────────────────────────────────────────────────────────────────────────────╯</text><text class="terminal-1618869302-r1" x="1268.8" y="142" textLength="12.2" clip-path="url(#terminal-1618869302-line-5)">
</text><text class="terminal-1618869302-r3" x="0" y="166.4" textLength="73.2" clip-path="url(#terminal-1618869302-line-6)">PREFIX</text><text class="terminal-1618869302-r4" x="85.4" y="166.4" textLength="24.4" clip-path="url(#terminal-1618869302-line-6)">mi</text><text class="terminal-1618869302-r4" x="109.8" y="166.4" textLength="12.2" clip-path="url(#terminal-1618869302-line-6)">:</text><text class="terminal-1618869302-r4" x="158.6" y="166.4" textLength="500.2" clip-path="url(#terminal-1618869302-line-6)">&lt;https://vocab.monstersinc.com/ontology#&gt;</text><text class="terminal-1618869302-r1" x="1268.8" y="166.4" textLength="12.2" clip-path="url(#terminal-1618869302-line-6)">
</text><text class="terminal-1618869302-r3" x="0" y="190.8" textLength="73.2" clip-path="url(#terminal-1618869302-line-7)">PREFIX</text><text class="terminal-1618869302-r4" x="85.4" y="190.8" textLength="48.8" clip-path="url(#terminal-1618869302-line-7)">rdfs</text><text class="terminal-1618869302-r4" x="134.2" y="190.8" textLength="12.2" clip-path="url(#terminal-1618869302-line-7)">:</text><text class="terminal-1618869302-r4" x="158.6" y="190.8" textLength="475.8" clip-path="url(#terminal-1618869302-line-7)">&lt;http://www.w3.org/2000/01/rdf-schema#&gt;</text><text class="terminal-1618869302-r1" x="1268.8" y="190.8" textLength="12.2" clip-path="url(#terminal-1618869302-line-7)">
</text><text class="terminal-1618869302-r1" x="1268.8" y="215.2" textLength="12.2" clip-path="url(#terminal-1618869302-line-8)">
</text><text class="terminal-1618869302-r3" x="0" y="239.6" textLength="73.2" clip-path="url(#terminal-1618869302-line-9)">SELECT</text><text class="terminal-1618869302-r4" x="85.4" y="239.6" textLength="97.6" clip-path="url(#terminal-1618869302-line-9)">?trigger</text><text class="terminal-1618869302-r4" x="195.2" y="239.6" textLength="97.6" clip-path="url(#terminal-1618869302-line-9)">?missing</text><text class="terminal-1618869302-r1" x="1268.8" y="239.6" textLength="12.2" clip-path="url(#terminal-1618869302-line-9)">
</text><text class="terminal-1618869302-r3" x="0" y="264" textLength="61" clip-path="url(#terminal-1618869302-line-10)">WHERE</text><text class="terminal-1618869302-r4" x="73.2" y="264" textLength="12.2" clip-path="url(#terminal-1618869302-line-10)">{</text><text class="terminal-1618869302-r1" x="1268.8" y="264" textLength="12.2" clip-path="url(#terminal-1618869302-line-10)">
</text><text class="terminal-1618869302-r4" x="48.8" y="288.4" textLength="97.6" clip-path="url(#terminal-1618869302-line-11)">?trigger</text><text class="terminal-1618869302-r3" x="158.6" y="288.4" textLength="12.2" clip-path="url(#terminal-1618869302-line-11)">a</text><text class="terminal-1618869302-r4" x="183" y="288.4" textLength="24.4" clip-path="url(#terminal-1618869302-line-11)">mi</text><text class="terminal-1618869302-r4" x="207.4" y="288.4" textLength="12.2" clip-path="url(#terminal-1618869302-line-11)">:</text><text class="terminal-1618869302-r5" x="219.6" y="288.4" textLength="134.2" clip-path="url(#terminal-1618869302-line-11)">HITLTrigger</text><text class="terminal-1618869302-r4" x="366" y="288.4" textLength="12.2" clip-path="url(#terminal-1618869302-line-11)">.</text><text class="terminal-1618869302-r1" x="1268.8" y="288.4" textLength="12.2" clip-path="url(#terminal-1618869302-line-11)">
</text><text class="terminal-1618869302-r4" x="48.8" y="312.8" textLength="12.2" clip-path="url(#terminal-1618869302-line-12)">{</text><text class="terminal-1618869302-r1" x="1268.8" y="312.8" textLength="12.2" clip-path="url(#terminal-1618869302-line-12)">
</text><text class="terminal-1618869302-r3" x="97.6" y="337.2" textLength="73.2" clip-path="url(#terminal-1618869302-line-13)">FILTER</text><text class="terminal-1618869302-r6" x="183" y="337.2" textLength="122" clip-path="url(#terminal-1618869302-line-13)">NOT&#160;EXISTS</text><text class="terminal-1618869302-r4" x="317.2" y="337.2" textLength="12.2" clip-path="url(#terminal-1618869302-line-13)">{</text><text class="terminal-1618869302-r4" x="341.6" y="337.2" textLength="97.6" clip-path="url(#terminal-1618869302-line-13)">?trigger</text><text class="terminal-1618869302-r4" x="451.4" y="337.2" textLength="24.4" clip-path="url(#terminal-1618869302-line-13)">mi</text><text class="terminal-1618869302-r4" x="475.8" y="337.2" textLength="12.2" clip-path="url(#terminal-1618869302-line-13)">:</text><text class="terminal-1618869302-r5" x="488" y="337.2" textLength="134.2" clip-path="url(#terminal-1618869302-line-13)">escalatesTo</text><text class="terminal-1618869302-r4" x="634.4" y="337.2" textLength="24.4" clip-path="url(#terminal-1618869302-line-13)">?r</text><text class="terminal-1618869302-r4" x="671" y="337.2" textLength="12.2" clip-path="url(#terminal-1618869302-line-13)">}</text><text class="terminal-1618869302-r1" x="1268.8" y="337.2" textLength="12.2" clip-path="url(#terminal-1618869302-line-13)">
</text><text class="terminal-1618869302-r3" x="97.6" y="361.6" textLength="48.8" clip-path="url(#terminal-1618869302-line-14)">BIND</text><text class="terminal-1618869302-r4" x="146.4" y="361.6" textLength="12.2" clip-path="url(#terminal-1618869302-line-14)">(</text><text class="terminal-1618869302-r7" x="158.6" y="361.6" textLength="12.2" clip-path="url(#terminal-1618869302-line-14)">&quot;</text><text class="terminal-1618869302-r7" x="170.8" y="361.6" textLength="231.8" clip-path="url(#terminal-1618869302-line-14)">missing&#160;escalatesTo</text><text class="terminal-1618869302-r7" x="402.6" y="361.6" textLength="12.2" clip-path="url(#terminal-1618869302-line-14)">&quot;</text><text class="terminal-1618869302-r3" x="427" y="361.6" textLength="24.4" clip-path="url(#terminal-1618869302-line-14)">AS</text><text class="terminal-1618869302-r4" x="463.6" y="361.6" textLength="97.6" clip-path="url(#terminal-1618869302-line-14)">?missing</text><text class="terminal-1618869302-r4" x="561.2" y="361.6" textLength="12.2" clip-path="url(#terminal-1618869302-line-14)">)</text><text class="terminal-1618869302-r1" x="1268.8" y="361.6" textLength="12.2" clip-path="url(#terminal-1618869302-line-14)">
</text><text class="terminal-1618869302-r4" x="48.8" y="386" textLength="12.2" clip-path="url(#terminal-1618869302-line-15)">}</text><text class="terminal-1618869302-r3" x="73.2" y="386" textLength="61" clip-path="url(#terminal-1618869302-line-15)">UNION</text><text class="terminal-1618869302-r4" x="146.4" y="386" textLength="12.2" clip-path="url(#terminal-1618869302-line-15)">{</text><text class="terminal-1618869302-r1" x="1268.8" y="386" textLength="12.2" clip-path="url(#terminal-1618869302-line-15)">
</text><text class="terminal-1618869302-r3" x="97.6" y="410.4" textLength="73.2" clip-path="url(#terminal-1618869302-line-16)">FILTER</text><text class="terminal-1618869302-r6" x="183" y="410.4" textLength="122" clip-path="url(#terminal-1618869302-line-16)">NOT&#160;EXISTS</text><text class="terminal-1618869302-r4" x="317.2" y="410.4" textLength="12.2" clip-path="url(#terminal-1618869302-line-16)">{</text><text class="terminal-1618869302-r4" x="341.6" y="410.4" textLength="97.6" clip-path="url(#terminal-1618869302-line-16)">?trigger</text><text class="terminal-1618869302-r4" x="451.4" y="410.4" textLength="24.4" clip-path="url(#terminal-1618869302-line-16)">mi</text><text class="terminal-1618869302-r4" x="475.8" y="410.4" textLength="12.2" clip-path="url(#terminal-1618869302-line-16)">:</text><text class="terminal-1618869302-r5" x="488" y="410.4" textLength="219.6" clip-path="url(#terminal-1618869302-line-16)">escalationDeadline</text><text class="terminal-1618869302-r4" x="719.8" y="410.4" textLength="24.4" clip-path="url(#terminal-1618869302-line-16)">?d</text><text class="terminal-1618869302-r4" x="756.4" y="410.4" textLength="12.2" clip-path="url(#terminal-1618869302-line-16)">}</text><text class="terminal-1618869302-r1" x="1268.8" y="410.4" textLength="12.2" clip-path="url(#terminal-1618869302-line-16)">
</text><text class="terminal-1618869302-r3" x="97.6" y="434.8" textLength="48.8" clip-path="url(#terminal-1618869302-line-17)">BIND</text><text class="terminal-1618869302-r4" x="146.4" y="434.8" textLength="12.2" clip-path="url(#terminal-1618869302-line-17)">(</text><text class="terminal-1618869302-r7" x="158.6" y="434.8" textLength="12.2" clip-path="url(#terminal-1618869302-line-17)">&quot;</text><text class="terminal-1618869302-r7" x="170.8" y="434.8" textLength="317.2" clip-path="url(#terminal-1618869302-line-17)">missing&#160;escalationDeadline</text><text class="terminal-1618869302-r7" x="488" y="434.8" textLength="12.2" clip-path="url(#terminal-1618869302-line-17)">&quot;</text><text class="terminal-1618869302-r3" x="512.4" y="434.8" textLength="24.4" clip-path="url(#terminal-1618869302-line-17)">AS</text><text class="terminal-1618869302-r4" x="549" y="434.8" textLength="97.6" clip-path="url(#terminal-1618869302-line-17)">?missing</text><text class="terminal-1618869302-r4" x="646.6" y="434.8" textLength="12.2" clip-path="url(#terminal-1618869302-line-17)">)</text><text class="terminal-1618869302-r1" x="1268.8" y="434.8" textLength="12.2" clip-path="url(#terminal-1618869302-line-17)">
</text><text class="terminal-1618869302-r4" x="48.8" y="459.2" textLength="12.2" clip-path="url(#terminal-1618869302-line-18)">}</text><text class="terminal-1618869302-r3" x="73.2" y="459.2" textLength="61" clip-path="url(#terminal-1618869302-line-18)">UNION</text><text class="terminal-1618869302-r4" x="146.4" y="459.2" textLength="12.2" clip-path="url(#terminal-1618869302-line-18)">{</text><text class="terminal-1618869302-r1" x="1268.8" y="459.2" textLength="12.2" clip-path="url(#terminal-1618869302-line-18)">
</text><text class="terminal-1618869302-r3" x="97.6" y="483.6" textLength="73.2" clip-path="url(#terminal-1618869302-line-19)">FILTER</text><text class="terminal-1618869302-r6" x="183" y="483.6" textLength="122" clip-path="url(#terminal-1618869302-line-19)">NOT&#160;EXISTS</text><text class="terminal-1618869302-r4" x="317.2" y="483.6" textLength="12.2" clip-path="url(#terminal-1618869302-line-19)">{</text><text class="terminal-1618869302-r4" x="341.6" y="483.6" textLength="97.6" clip-path="url(#terminal-1618869302-line-19)">?trigger</text><text class="terminal-1618869302-r4" x="451.4" y="483.6" textLength="24.4" clip-path="url(#terminal-1618869302-line-19)">mi</text><text class="terminal-1618869302-r4" x="475.8" y="483.6" textLength="12.2" clip-path="url(#terminal-1618869302-line-19)">:</text><text class="terminal-1618869302-r5" x="488" y="483.6" textLength="183" clip-path="url(#terminal-1618869302-line-19)">triggeredByStep</text><text class="terminal-1618869302-r4" x="683.2" y="483.6" textLength="24.4" clip-path="url(#terminal-1618869302-line-19)">?s</text><text class="terminal-1618869302-r4" x="719.8" y="483.6" textLength="12.2" clip-path="url(#terminal-1618869302-line-19)">}</text><text class="terminal-1618869302-r1" x="1268.8" y="483.6" textLength="12.2" clip-path="url(#terminal-1618869302-line-19)">
</text><text class="terminal-1618869302-r3" x="97.6" y="508" textLength="48.8" clip-path="url(#terminal-1618869302-line-20)">BIND</text><text class="terminal-1618869302-r4" x="146.4" y="508" textLength="12.2" clip-path="url(#terminal-1618869302-line-20)">(</text><text class="terminal-1618869302-r7" x="158.6" y="508" textLength="12.2" clip-path="url(#terminal-1618869302-line-20)">&quot;</text><text class="terminal-1618869302-r7" x="170.8" y="508" textLength="280.6" clip-path="url(#terminal-1618869302-line-20)">missing&#160;triggeredByStep</text><text class="terminal-1618869302-r7" x="451.4" y="508" textLength="12.2" clip-path="url(#terminal-1618869302-line-20)">&quot;</text><text class="terminal-1618869302-r3" x="475.8" y="508" textLength="24.4" clip-path="url(#terminal-1618869302-line-20)">AS</text><text class="terminal-1618869302-r4" x="512.4" y="508" textLength="97.6" clip-path="url(#terminal-1618869302-line-20)">?missing</text><text class="terminal-1618869302-r4" x="610" y="508" textLength="12.2" clip-path="url(#terminal-1618869302-line-20)">)</text><text class="terminal-1618869302-r1" x="1268.8" y="508" textLength="12.2" clip-path="url(#terminal-1618869302-line-20)">
</text><text class="terminal-1618869302-r4" x="48.8" y="532.4" textLength="12.2" clip-path="url(#terminal-1618869302-line-21)">}</text><text class="terminal-1618869302-r1" x="1268.8" y="532.4" textLength="12.2" clip-path="url(#terminal-1618869302-line-21)">
</text><text class="terminal-1618869302-r4" x="0" y="556.8" textLength="12.2" clip-path="url(#terminal-1618869302-line-22)">}</text><text class="terminal-1618869302-r1" x="1268.8" y="556.8" textLength="12.2" clip-path="url(#terminal-1618869302-line-22)">
</text><text class="terminal-1618869302-r3" x="0" y="581.2" textLength="97.6" clip-path="url(#terminal-1618869302-line-23)">ORDER&#160;BY</text><text class="terminal-1618869302-r4" x="109.8" y="581.2" textLength="97.6" clip-path="url(#terminal-1618869302-line-23)">?trigger</text><text class="terminal-1618869302-r1" x="1268.8" y="581.2" textLength="12.2" clip-path="url(#terminal-1618869302-line-23)">
</text><text class="terminal-1618869302-r1" x="0" y="605.6" textLength="24.4" clip-path="url(#terminal-1618869302-line-24)">╭─</text><text class="terminal-1618869302-r1" x="24.4" y="605.6" textLength="256.2" clip-path="url(#terminal-1618869302-line-24)">─&#160;answer&#160;—&#160;0&#160;row(s)&#160;─</text><text class="terminal-1618869302-r1" x="280.6" y="605.6" textLength="24.4" clip-path="url(#terminal-1618869302-line-24)">─╮</text><text class="terminal-1618869302-r1" x="1268.8" y="605.6" textLength="12.2" clip-path="url(#terminal-1618869302-line-24)">
</text><text class="terminal-1618869302-r1" x="0" y="630" textLength="12.2" clip-path="url(#terminal-1618869302-line-25)">│</text><text class="terminal-1618869302-r1" x="24.4" y="630" textLength="256.2" clip-path="url(#terminal-1618869302-line-25)">┏━━━━━━━━━┳━━━━━━━━━┓</text><text class="terminal-1618869302-r1" x="292.8" y="630" textLength="12.2" clip-path="url(#terminal-1618869302-line-25)">│</text><text class="terminal-1618869302-r1" x="1268.8" y="630" textLength="12.2" clip-path="url(#terminal-1618869302-line-25)">
</text><text class="terminal-1618869302-r1" x="0" y="654.4" textLength="12.2" clip-path="url(#terminal-1618869302-line-26)">│</text><text class="terminal-1618869302-r1" x="24.4" y="654.4" textLength="12.2" clip-path="url(#terminal-1618869302-line-26)">┃</text><text class="terminal-1618869302-r2" x="48.8" y="654.4" textLength="85.4" clip-path="url(#terminal-1618869302-line-26)">trigger</text><text class="terminal-1618869302-r1" x="146.4" y="654.4" textLength="12.2" clip-path="url(#terminal-1618869302-line-26)">┃</text><text class="terminal-1618869302-r2" x="170.8" y="654.4" textLength="85.4" clip-path="url(#terminal-1618869302-line-26)">missing</text><text class="terminal-1618869302-r1" x="268.4" y="654.4" textLength="12.2" clip-path="url(#terminal-1618869302-line-26)">┃</text><text class="terminal-1618869302-r1" x="292.8" y="654.4" textLength="12.2" clip-path="url(#terminal-1618869302-line-26)">│</text><text class="terminal-1618869302-r1" x="1268.8" y="654.4" textLength="12.2" clip-path="url(#terminal-1618869302-line-26)">
</text><text class="terminal-1618869302-r1" x="0" y="678.8" textLength="12.2" clip-path="url(#terminal-1618869302-line-27)">│</text><text class="terminal-1618869302-r1" x="24.4" y="678.8" textLength="256.2" clip-path="url(#terminal-1618869302-line-27)">┡━━━━━━━━━╇━━━━━━━━━┩</text><text class="terminal-1618869302-r1" x="292.8" y="678.8" textLength="12.2" clip-path="url(#terminal-1618869302-line-27)">│</text><text class="terminal-1618869302-r1" x="1268.8" y="678.8" textLength="12.2" clip-path="url(#terminal-1618869302-line-27)">
</text><text class="terminal-1618869302-r1" x="0" y="703.2" textLength="12.2" clip-path="url(#terminal-1618869302-line-28)">│</text><text class="terminal-1618869302-r1" x="24.4" y="703.2" textLength="256.2" clip-path="url(#terminal-1618869302-line-28)">└─────────┴─────────┘</text><text class="terminal-1618869302-r1" x="292.8" y="703.2" textLength="12.2" clip-path="url(#terminal-1618869302-line-28)">│</text><text class="terminal-1618869302-r1" x="1268.8" y="703.2" textLength="12.2" clip-path="url(#terminal-1618869302-line-28)">
</text><text class="terminal-1618869302-r1" x="0" y="727.6" textLength="305" clip-path="url(#terminal-1618869302-line-29)">╰───────────────────────╯</text><text class="terminal-1618869302-r1" x="1268.8" y="727.6" textLength="12.2" clip-path="url(#terminal-1618869302-line-29)">
</text>
    </g>
    </g>
</svg>
